<svg width="30" height="30" viewBox="0 0 30 30" fill="none" xmlns="http://www.w3.org/2000/svg">
<path d="M14.994 2.70292C19 2.70292 19.4702 2.72078 21.0536 2.79222C22.5179 2.85771 23.3095 3.10181 23.8393 3.31018C24.5417 3.58404 25.0417 3.90554 25.5655 4.42945C26.0893 4.95336 26.4167 5.45346 26.6845 6.15598C26.8869 6.68585 27.1369 7.47767 27.2024 8.94225C27.2738 10.5259 27.2917 10.9962 27.2917 15.003C27.2917 19.0097 27.2738 19.4801 27.2024 21.0637C27.1369 22.5283 26.8929 23.3201 26.6845 23.85C26.4107 24.5525 26.0893 25.0526 25.5655 25.5765C25.0417 26.1004 24.5417 26.4279 23.8393 26.6958C23.3095 26.8982 22.5179 27.1482 21.0536 27.2137C19.4702 27.2852 19 27.303 14.994 27.303C10.9881 27.303 10.5179 27.2852 8.93452 27.2137C7.47024 27.1482 6.67857 26.9041 6.14881 26.6958C5.44643 26.4219 4.94643 26.1004 4.42262 25.5765C3.89881 25.0526 3.57143 24.5525 3.30357 23.85C3.10119 23.3201 2.85119 22.5283 2.78571 21.0637C2.71429 19.4801 2.69643 19.0097 2.69643 15.003C2.69643 10.9962 2.71429 10.5259 2.78571 8.94225C2.85119 7.47767 3.09524 6.68585 3.30357 6.15598C3.57738 5.45346 3.89881 4.95336 4.42262 4.42945C4.94643 3.90554 5.44643 3.57809 6.14881 3.31018C6.67857 3.10776 7.47024 2.85771 8.93452 2.79222C10.5179 2.71482 10.9881 2.70292 14.994 2.70292ZM14.994 0C10.9226 0 10.4107 0.0178607 8.80952 0.0893034C7.21429 0.160746 6.125 0.416749 5.17262 0.78587C4.18452 1.1669 3.35119 1.68486 2.51786 2.51836C1.68452 3.35186 1.17262 4.19131 0.785714 5.17365C0.416667 6.12622 0.160714 7.21572 0.0892857 8.81723C0.0178571 10.4128 0 10.9248 0 14.997C0 19.0693 0.0178571 19.5813 0.0892857 21.1828C0.160714 22.7783 0.416667 23.8678 0.785714 24.8264C1.16667 25.8146 1.68452 26.6481 2.51786 27.4816C3.35119 28.3151 4.19048 28.8271 5.17262 29.2141C6.125 29.5832 7.21429 29.8393 8.81548 29.9107C10.4167 29.9821 10.9226 30 15 30C19.0774 30 19.5833 29.9821 21.1845 29.9107C22.7798 29.8393 23.869 29.5832 24.8274 29.2141C25.8155 28.8331 26.6488 28.3151 27.4821 27.4816C28.3155 26.6481 28.8274 25.8087 29.2143 24.8264C29.5833 23.8738 29.8393 22.7843 29.9107 21.1828C29.9821 19.5813 30 19.0752 30 14.997C30 10.9188 29.9821 10.4128 29.9107 8.81127C29.8393 7.21572 29.5833 6.12622 29.2143 5.16769C28.8333 4.1794 28.3155 3.3459 27.4821 2.5124C26.6488 1.6789 25.8095 1.1669 24.8274 0.779917C23.875 0.410796 22.7857 0.154793 21.1845 0.0833499C19.5774 0.0178607 19.0655 0 14.994 0Z" fill="white"/>
<path d="M14.9941 7.29311C10.7441 7.29311 7.29175 10.7402 7.29175 14.997C7.29175 19.2538 10.7441 22.7009 14.9941 22.7009C19.2441 22.7009 22.6965 19.2479 22.6965 14.997C22.6965 10.7462 19.2441 7.29311 14.9941 7.29311ZM14.9941 19.998C12.2322 19.998 9.99413 17.7595 9.99413 14.997C9.99413 12.2346 12.2322 9.99602 14.9941 9.99602C17.756 9.99602 19.9941 12.2346 19.9941 14.997C19.9941 17.7595 17.756 19.998 14.9941 19.998Z" fill="white"/>
<path d="M23 8.78746C23.9928 8.78746 24.7976 7.98248 24.7976 6.98949C24.7976 5.99649 23.9928 5.19151 23 5.19151C22.0072 5.19151 21.2024 5.99649 21.2024 6.98949C21.2024 7.98248 22.0072 8.78746 23 8.78746Z" fill="white"/>
</svg>
