<svg width="1440" height="1024" viewBox="0 0 1440 1024" fill="none" xmlns="http://www.w3.org/2000/svg">
<g clip-path="url(#clip0)">
<rect width="1440" height="1024" fill="black"/>
<path d="M327 837.273C327 842.863 325.147 846.691 321.953 849.602C318.56 852.693 313.292 855.07 305.98 856.756C291.277 860.148 270.68 860.273 247 860.273C235.048 860.273 223.191 861.139 212.278 861.984C211.578 862.038 210.882 862.092 210.19 862.146C200.014 862.936 190.815 863.65 182.91 863.628C174.331 863.605 168.145 862.691 164.223 860.667C162.377 859.714 161.16 858.578 160.367 857.246C159.568 855.902 159 854.021 159 851.273C159 848.525 159.568 846.644 160.367 845.3C161.16 843.968 162.377 842.831 164.223 841.879C168.145 839.855 174.331 838.941 182.91 838.918C190.815 838.896 200.014 839.61 210.19 840.4C210.882 840.454 211.578 840.508 212.278 840.562C223.191 841.407 235.048 842.273 247 842.273C266.248 842.273 284.216 837.75 298.215 834.226C301.822 833.319 305.165 832.477 308.199 831.796C311.97 830.95 315.197 830.359 317.923 830.118C320.689 829.874 322.599 830.026 323.879 830.411C325.005 830.75 325.577 831.237 325.985 831.917C326.481 832.744 327 834.327 327 837.273Z" fill="#0A0A0A" stroke="#0A0A0A" stroke-width="10"/>
<path d="M291 480.273C291 485.863 289.147 489.691 285.953 492.602C282.56 495.693 277.292 498.07 269.98 499.756C255.277 503.148 234.68 503.273 211 503.273C199.048 503.273 187.191 504.139 176.278 504.984C175.578 505.038 174.882 505.092 174.19 505.146C164.014 505.936 154.815 506.65 146.91 506.628C138.331 506.605 132.145 505.691 128.223 503.667C126.377 502.714 125.16 501.578 124.367 500.246C123.568 498.902 123 497.021 123 494.273C123 491.525 123.568 489.644 124.367 488.3C125.16 486.968 126.377 485.831 128.223 484.879C132.145 482.855 138.331 481.941 146.91 481.918C154.815 481.896 164.014 482.61 174.19 483.4C174.882 483.454 175.578 483.508 176.278 483.562C187.191 484.407 199.048 485.273 211 485.273C230.248 485.273 248.216 480.75 262.215 477.226C265.822 476.319 269.165 475.477 272.199 474.796C275.97 473.95 279.197 473.359 281.923 473.118C284.689 472.874 286.599 473.026 287.879 473.411C289.005 473.75 289.577 474.237 289.985 474.917C290.481 475.744 291 477.327 291 480.273Z" fill="#0A0A0A" stroke="#0A0A0A" stroke-width="10"/>
<path d="M113 55.273C113 60.8627 111.147 64.6908 107.953 67.602C104.56 70.6931 99.292 73.0696 91.9802 74.7563C77.2768 78.148 56.6796 78.2729 33 78.2729C21.048 78.2729 9.19118 79.1392 -1.72155 79.9836C-2.42208 80.0378 -3.11819 80.0919 -3.8098 80.1456C-13.9856 80.9358 -23.1852 81.6502 -31.0902 81.6283C-39.6691 81.6045 -45.8554 80.691 -49.7772 78.667C-51.6229 77.7145 -52.84 76.5779 -53.6325 75.246C-54.4323 73.9019 -55 72.021 -55 69.2729C-55 66.5249 -54.4323 64.644 -53.6325 63.2999C-52.84 61.968 -51.6229 60.8314 -49.7772 59.8789C-45.8554 57.8549 -39.6691 56.9414 -31.0902 56.9176C-23.1852 56.8957 -13.9856 57.6101 -3.80987 58.4003C-3.11824 58.454 -2.4221 58.5081 -1.72155 58.5623C9.19118 59.4067 21.048 60.273 33 60.273C52.248 60.273 70.2163 55.7501 84.2155 52.2264C87.8221 51.3186 91.1652 50.4771 94.1989 49.7963C97.9699 48.9501 101.197 48.3591 103.923 48.1185C106.689 47.8743 108.599 48.0257 109.879 48.4111C111.005 48.7499 111.577 49.2366 111.985 49.9166C112.481 50.7437 113 52.3266 113 55.273Z" fill="#0A0A0A" stroke="#0A0A0A" stroke-width="10"/>
<path d="M1231 631.127C1231 636.167 1229.98 639.44 1228.57 641.647C1227.18 643.811 1225.11 645.402 1222.14 646.572C1215.78 649.076 1206.6 649.231 1194.93 649.231C1188.89 649.231 1182.95 649.978 1177.69 650.673C1177.38 650.713 1177.08 650.753 1176.79 650.793C1171.76 651.459 1167.55 652.017 1163.98 652C1160.16 651.982 1158.2 651.28 1157.14 650.346C1156.21 649.531 1155 647.653 1155 642.679C1155 637.704 1156.21 635.827 1157.14 635.012C1158.2 634.077 1160.16 633.376 1163.98 633.358C1167.55 633.341 1171.76 633.899 1176.79 634.565C1177.08 634.605 1177.38 634.644 1177.69 634.685C1182.95 635.38 1188.89 636.127 1194.93 636.127C1201.42 636.127 1207.44 634.501 1212.62 632.624C1215.22 631.683 1217.66 630.657 1219.86 629.716C1220.23 629.558 1220.59 629.403 1220.94 629.252C1222.73 628.484 1224.3 627.809 1225.76 627.251C1227.52 626.578 1228.8 626.199 1229.73 626.058C1230.01 626.016 1230.21 626.002 1230.35 626C1230.38 626.064 1230.41 626.144 1230.45 626.242C1230.73 627.04 1231 628.538 1231 631.127ZM1230.23 625.765C1230.23 625.765 1230.23 625.77 1230.24 625.782C1230.23 625.772 1230.23 625.766 1230.23 625.765Z" fill="#0A0A0A" stroke="#0A0A0A" stroke-width="10"/>
<path d="M907 300.273C907 305.863 905.147 309.691 901.953 312.602C898.56 315.693 893.292 318.07 885.98 319.756C871.277 323.148 850.68 323.273 827 323.273C815.048 323.273 803.191 324.139 792.278 324.984C791.578 325.038 790.882 325.092 790.19 325.146C780.014 325.936 770.815 326.65 762.91 326.628C754.331 326.605 748.145 325.691 744.223 323.667C742.377 322.714 741.16 321.578 740.367 320.246C739.568 318.902 739 317.021 739 314.273C739 311.525 739.568 309.644 740.367 308.3C741.16 306.968 742.377 305.831 744.223 304.879C748.145 302.855 754.331 301.941 762.91 301.918C770.815 301.896 780.014 302.61 790.19 303.4C790.882 303.454 791.578 303.508 792.278 303.562C803.191 304.407 815.048 305.273 827 305.273C846.248 305.273 864.216 300.75 878.215 297.226C881.822 296.319 885.165 295.477 888.199 294.796C891.97 293.95 895.197 293.359 897.923 293.118C900.689 292.874 902.599 293.026 903.879 293.411C905.005 293.75 905.577 294.237 905.985 294.917C906.481 295.744 907 297.327 907 300.273Z" stroke="#0A0A0A" stroke-width="10"/>
<path d="M1409 99.273C1409 104.863 1407.15 108.691 1403.95 111.602C1400.56 114.693 1395.29 117.07 1387.98 118.756C1373.28 122.148 1352.68 122.273 1329 122.273C1317.05 122.273 1305.19 123.139 1294.28 123.984C1293.58 124.038 1292.88 124.092 1292.19 124.146C1282.01 124.936 1272.81 125.65 1264.91 125.628C1256.33 125.605 1250.14 124.691 1246.22 122.667C1244.38 121.714 1243.16 120.578 1242.37 119.246C1241.57 117.902 1241 116.021 1241 113.273C1241 110.525 1241.57 108.644 1242.37 107.3C1243.16 105.968 1244.38 104.831 1246.22 103.879C1250.14 101.855 1256.33 100.941 1264.91 100.918C1272.81 100.896 1282.01 101.61 1292.19 102.4C1292.88 102.454 1293.58 102.508 1294.28 102.562C1305.19 103.407 1317.05 104.273 1329 104.273C1348.25 104.273 1366.22 99.7501 1380.22 96.2264C1383.82 95.3186 1387.17 94.4771 1390.2 93.7963C1393.97 92.9501 1397.2 92.3591 1399.92 92.1185C1402.69 91.8743 1404.6 92.0257 1405.88 92.4111C1407.01 92.7499 1407.58 93.2366 1407.99 93.9166C1408.48 94.7437 1409 96.3266 1409 99.273Z" stroke="#0A0A0A" stroke-width="10"/>
<path d="M686.891 275.093L507.891 -23.684L927.891 -23.684L686.891 275.093Z" fill="#0A0A0A"/>
<path d="M690.891 230.425L609.879 92.1627L785.891 108.334L690.891 230.425Z" fill="black"/>
<path d="M724.891 -21.6987H891.891L798.843 83.5329L709.891 77.2628L724.891 -21.6987Z" fill="black"/>
<path d="M549.891 -23.1876H705.391L696.891 73.5922L601.891 67.978L549.891 -23.1876Z" fill="black"/>
<path d="M1051.31 727.168L1257.42 1025.59L867.937 1025.78L1051.31 727.168Z" fill="#0A0A0A"/>
<path d="M1054.12 796.636L1145.93 921.169L971.055 927.272L1054.12 796.636Z" fill="black"/>
<path d="M1040.79 1025.19L897.82 1025.49L954.972 947.174L1045.96 946.989L1040.79 1025.19Z" fill="black"/>
<path d="M1214.92 1025.61L1052.93 1025.69L1068.26 946.945L1159.13 944.311L1214.92 1025.61Z" fill="black"/>
<path d="M1377 600C1377 601.52 1377.04 602.993 1377.07 604.36C1377.07 604.475 1377.08 604.589 1377.08 604.702C1377.11 605.956 1377.14 607.104 1377.15 608.198C1377.16 610.642 1377.04 612.36 1376.72 613.599C1376.43 614.721 1376.07 615.076 1375.81 615.263C1375.45 615.516 1374.46 616 1372 616C1362.39 616 1355 608.62 1355 600C1355 591.38 1362.39 584 1372 584C1374.46 584 1375.45 584.484 1375.81 584.737C1376.07 584.924 1376.43 585.279 1376.72 586.401C1377.04 587.64 1377.16 589.358 1377.15 591.802C1377.14 592.896 1377.11 594.044 1377.08 595.298C1377.08 595.411 1377.07 595.525 1377.07 595.64C1377.04 597.007 1377 598.48 1377 600Z" stroke="#0A0A0A" stroke-width="10"/>
<path d="M129 943C129 944.52 129.035 945.993 129.07 947.36C129.073 947.475 129.076 947.589 129.079 947.702C129.111 948.956 129.141 950.104 129.146 951.198C129.158 953.642 129.035 955.36 128.715 956.599C128.425 957.721 128.073 958.076 127.807 958.263C127.448 958.516 126.456 959 124 959C114.389 959 107 951.62 107 943C107 934.38 114.389 927 124 927C126.456 927 127.448 927.484 127.807 927.737C128.073 927.924 128.425 928.279 128.715 929.401C129.035 930.64 129.158 932.358 129.146 934.802C129.141 935.896 129.111 937.044 129.079 938.298C129.076 938.411 129.073 938.525 129.07 938.64C129.035 940.007 129 941.48 129 943Z" stroke="#0A0A0A" stroke-width="10"/>
<path d="M373 43C373 44.5205 373.035 45.9931 373.07 47.3604C373.073 47.475 373.076 47.5888 373.079 47.7016C373.111 48.9563 373.141 50.1045 373.146 51.1975C373.158 53.6423 373.035 55.3601 372.715 56.5992C372.425 57.721 372.073 58.0757 371.807 58.2634C371.448 58.5163 370.456 59 368 59C358.389 59 351 51.6199 351 43C351 34.3801 358.389 27 368 27C370.456 27 371.448 27.4837 371.807 27.7366C372.073 27.9243 372.425 28.279 372.715 29.4008C373.035 30.6399 373.158 32.3577 373.146 34.8025C373.141 35.8955 373.111 37.0437 373.079 38.2984C373.076 38.4112 373.073 38.525 373.07 38.6396C373.035 40.0069 373 41.4795 373 43Z" stroke="#0A0A0A" stroke-width="10"/>
<path d="M1084 164C1084 165.52 1084.04 166.993 1084.07 168.36C1084.07 168.475 1084.08 168.589 1084.08 168.702C1084.11 169.956 1084.14 171.104 1084.15 172.198C1084.16 174.642 1084.04 176.36 1083.72 177.599C1083.43 178.721 1083.07 179.076 1082.81 179.263C1082.45 179.516 1081.46 180 1079 180C1069.39 180 1062 172.62 1062 164C1062 155.38 1069.39 148 1079 148C1081.46 148 1082.45 148.484 1082.81 148.737C1083.07 148.924 1083.43 149.279 1083.72 150.401C1084.04 151.64 1084.16 153.358 1084.15 155.802C1084.14 156.896 1084.11 158.044 1084.08 159.298C1084.08 159.411 1084.07 159.525 1084.07 159.64C1084.04 161.007 1084 162.48 1084 164Z" stroke="#0A0A0A" stroke-width="10"/>
<path d="M307 741C307 742.52 307.035 743.993 307.07 745.36C307.073 745.475 307.076 745.589 307.079 745.702C307.111 746.956 307.141 748.104 307.146 749.198C307.158 751.642 307.035 753.36 306.715 754.599C306.425 755.721 306.073 756.076 305.807 756.263C305.448 756.516 304.456 757 302 757C292.389 757 285 749.62 285 741C285 732.38 292.389 725 302 725C304.456 725 305.448 725.484 305.807 725.737C306.073 725.924 306.425 726.279 306.715 727.401C307.035 728.64 307.158 730.358 307.146 732.802C307.141 733.896 307.111 735.044 307.079 736.298C307.076 736.411 307.073 736.525 307.07 736.64C307.035 738.007 307 739.48 307 741Z" stroke="#0A0A0A" stroke-width="10"/>
<path d="M27 185C27 186.52 27.0352 187.993 27.0703 189.36C27.0732 189.475 27.0762 189.589 27.0791 189.702C27.1115 190.956 27.1411 192.104 27.1462 193.198C27.1576 195.642 27.0351 197.36 26.7151 198.599C26.4255 199.721 26.0733 200.076 25.807 200.263C25.4485 200.516 24.456 201 22 201C12.3894 201 5 193.62 5 185C5 176.38 12.3894 169 22 169C24.456 169 25.4485 169.484 25.807 169.737C26.0733 169.924 26.4255 170.279 26.7151 171.401C27.0351 172.64 27.1576 174.358 27.1462 176.802C27.1411 177.896 27.1115 179.044 27.0791 180.298C27.0762 180.411 27.0732 180.525 27.0703 180.64C27.0352 182.007 27 183.48 27 185Z" stroke="#0A0A0A" stroke-width="10"/>
<path d="M657 489C657 490.52 657.035 491.993 657.07 493.36C657.073 493.475 657.076 493.589 657.079 493.702C657.111 494.956 657.141 496.104 657.146 497.198C657.158 499.642 657.035 501.36 656.715 502.599C656.425 503.721 656.073 504.076 655.807 504.263C655.448 504.516 654.456 505 652 505C642.389 505 635 497.62 635 489C635 480.38 642.389 473 652 473C654.456 473 655.448 473.484 655.807 473.737C656.073 473.924 656.425 474.279 656.715 475.401C657.035 476.64 657.158 478.358 657.146 480.802C657.141 481.896 657.111 483.044 657.079 484.298C657.076 484.411 657.073 484.525 657.07 484.64C657.035 486.007 657 487.48 657 489Z" stroke="#0A0A0A" stroke-width="10"/>
<path d="M1376.93 310C1376.93 310.954 1376.94 311.877 1376.96 312.723C1376.96 312.793 1376.97 312.863 1376.97 312.932C1376.98 313.712 1377 314.413 1377 315.079C1377 316.449 1376.95 317.367 1376.84 317.998C1374.34 317.923 1371 315.184 1371 310C1371 304.816 1374.34 302.077 1376.84 302.002C1376.95 302.633 1377 303.551 1377 304.921C1377 305.587 1376.98 306.288 1376.97 307.068C1376.97 307.137 1376.96 307.207 1376.96 307.277C1376.94 308.123 1376.93 309.046 1376.93 310ZM1376.7 318.555C1376.7 318.555 1376.71 318.552 1376.71 318.547C1376.71 318.553 1376.7 318.555 1376.7 318.555ZM1377.39 317.968C1377.4 317.967 1377.4 317.966 1377.4 317.966C1377.4 317.966 1377.4 317.967 1377.39 317.968ZM1377.4 302.034C1377.4 302.034 1377.4 302.033 1377.39 302.032C1377.4 302.033 1377.4 302.034 1377.4 302.034ZM1376.71 301.453C1376.71 301.448 1376.7 301.445 1376.7 301.445C1376.7 301.445 1376.71 301.447 1376.71 301.453Z" fill="#0A0A0A" stroke="#0A0A0A" stroke-width="10"/>
<path d="M2.92686 957C2.92686 957.954 2.94464 958.877 2.9621 959.723C2.96355 959.793 2.965 959.863 2.96644 959.932C2.98259 960.712 2.99713 961.413 2.99963 962.079C3.00478 963.449 2.95275 964.367 2.84403 964.998C0.33859 964.923 -3 962.184 -3 957C-3 951.816 0.338588 949.077 2.84403 949.002C2.95275 949.633 3.00478 950.551 2.99963 951.921C2.99713 952.587 2.98259 953.288 2.96644 954.068C2.965 954.137 2.96355 954.207 2.9621 954.277C2.94464 955.123 2.92686 956.046 2.92686 957ZM2.70441 965.555C2.70436 965.555 2.70558 965.552 2.70827 965.547C2.70581 965.553 2.70447 965.555 2.70441 965.555ZM3.3921 964.968C3.39771 964.967 3.40068 964.966 3.40077 964.966C3.40085 964.966 3.39805 964.967 3.3921 964.968ZM3.40077 949.034C3.40068 949.034 3.39771 949.033 3.39211 949.032C3.39805 949.033 3.40085 949.034 3.40077 949.034ZM2.70827 948.453C2.70558 948.448 2.70436 948.445 2.70441 948.445C2.70447 948.445 2.70581 948.447 2.70827 948.453Z" fill="#0A0A0A" stroke="#0A0A0A" stroke-width="10"/>
<path d="M1020.93 455C1020.93 455.954 1020.94 456.877 1020.96 457.723C1020.96 457.793 1020.97 457.863 1020.97 457.932C1020.98 458.712 1021 459.413 1021 460.079C1021 461.449 1020.95 462.367 1020.84 462.998C1018.34 462.923 1015 460.184 1015 455C1015 449.816 1018.34 447.077 1020.84 447.002C1020.95 447.633 1021 448.551 1021 449.921C1021 450.587 1020.98 451.288 1020.97 452.068C1020.97 452.137 1020.96 452.207 1020.96 452.277C1020.94 453.123 1020.93 454.046 1020.93 455ZM1020.7 463.555C1020.7 463.555 1020.71 463.552 1020.71 463.547C1020.71 463.553 1020.7 463.555 1020.7 463.555ZM1021.39 462.968C1021.4 462.967 1021.4 462.966 1021.4 462.966C1021.4 462.966 1021.4 462.967 1021.39 462.968ZM1021.4 447.034C1021.4 447.034 1021.4 447.033 1021.39 447.032C1021.4 447.033 1021.4 447.034 1021.4 447.034ZM1020.71 446.453C1020.71 446.448 1020.7 446.445 1020.7 446.445C1020.7 446.445 1020.71 446.447 1020.71 446.453Z" fill="#0A0A0A" stroke="#0A0A0A" stroke-width="10"/>
<path d="M963.927 43C963.927 43.9543 963.945 44.8766 963.962 45.723C963.964 45.7935 963.965 45.8633 963.966 45.9325C963.983 46.7117 963.997 47.4127 964 48.079C964.005 49.4488 963.953 50.3667 963.844 50.9984C961.339 50.9231 958 48.1836 958 43C958 37.8164 961.339 35.0769 963.844 35.0016C963.953 35.6333 964.005 36.5512 964 37.921C963.997 38.5873 963.983 39.2883 963.966 40.0675C963.965 40.1367 963.964 40.2065 963.962 40.277C963.945 41.1234 963.927 42.0457 963.927 43ZM963.704 51.5553C963.704 51.5552 963.706 51.5523 963.708 51.5469C963.706 51.5527 963.704 51.5554 963.704 51.5553ZM964.392 50.9685C964.398 50.9668 964.401 50.9661 964.401 50.9662C964.401 50.9663 964.398 50.9671 964.392 50.9685ZM964.401 35.0338C964.401 35.0339 964.398 35.0332 964.392 35.0315C964.398 35.0329 964.401 35.0337 964.401 35.0338ZM963.708 34.4531C963.706 34.4477 963.704 34.4448 963.704 34.4447C963.704 34.4446 963.706 34.4473 963.708 34.4531Z" fill="#0A0A0A" stroke="#0A0A0A" stroke-width="10"/>
<path d="M414.927 360C414.927 360.954 414.945 361.877 414.962 362.723C414.964 362.793 414.965 362.863 414.966 362.932C414.983 363.712 414.997 364.413 415 365.079C415.005 366.449 414.953 367.367 414.844 367.998C412.339 367.923 409 365.184 409 360C409 354.816 412.339 352.077 414.844 352.002C414.953 352.633 415.005 353.551 415 354.921C414.997 355.587 414.983 356.288 414.966 357.068C414.965 357.137 414.964 357.207 414.962 357.277C414.945 358.123 414.927 359.046 414.927 360ZM414.704 368.555C414.704 368.555 414.706 368.552 414.708 368.547C414.706 368.553 414.704 368.555 414.704 368.555ZM415.392 367.968C415.398 367.967 415.401 367.966 415.401 367.966C415.401 367.966 415.398 367.967 415.392 367.968ZM415.401 352.034C415.401 352.034 415.398 352.033 415.392 352.032C415.398 352.033 415.401 352.034 415.401 352.034ZM414.708 351.453C414.706 351.448 414.704 351.445 414.704 351.445C414.704 351.445 414.706 351.447 414.708 351.453Z" fill="#0A0A0A" stroke="#0A0A0A" stroke-width="10"/>
<path d="M780.927 806C780.927 806.954 780.945 807.877 780.962 808.723C780.964 808.793 780.965 808.863 780.966 808.932C780.983 809.712 780.997 810.413 781 811.079C781.005 812.449 780.953 813.367 780.844 813.998C778.339 813.923 775 811.184 775 806C775 800.816 778.339 798.077 780.844 798.002C780.953 798.633 781.005 799.551 781 800.921C780.997 801.587 780.983 802.288 780.966 803.068C780.965 803.137 780.964 803.207 780.962 803.277C780.945 804.123 780.927 805.046 780.927 806ZM780.704 814.555C780.704 814.555 780.706 814.552 780.708 814.547C780.706 814.553 780.704 814.555 780.704 814.555ZM781.392 813.968C781.398 813.967 781.401 813.966 781.401 813.966C781.401 813.966 781.398 813.967 781.392 813.968ZM781.401 798.034C781.401 798.034 781.398 798.033 781.392 798.032C781.398 798.033 781.401 798.034 781.401 798.034ZM780.708 797.453C780.706 797.448 780.704 797.445 780.704 797.445C780.704 797.445 780.706 797.447 780.708 797.453Z" fill="#0A0A0A" stroke="#0A0A0A" stroke-width="10"/>
<path d="M470.927 644C470.927 644.954 470.945 645.877 470.962 646.723C470.964 646.793 470.965 646.863 470.966 646.932C470.983 647.712 470.997 648.413 471 649.079C471.005 650.449 470.953 651.367 470.844 651.998C468.339 651.923 465 649.184 465 644C465 638.816 468.339 636.077 470.844 636.002C470.953 636.633 471.005 637.551 471 638.921C470.997 639.587 470.983 640.288 470.966 641.068C470.965 641.137 470.964 641.207 470.962 641.277C470.945 642.123 470.927 643.046 470.927 644ZM470.704 652.555C470.704 652.555 470.706 652.552 470.708 652.547C470.706 652.553 470.704 652.555 470.704 652.555ZM471.392 651.968C471.398 651.967 471.401 651.966 471.401 651.966C471.401 651.966 471.398 651.967 471.392 651.968ZM471.401 636.034C471.401 636.034 471.398 636.033 471.392 636.032C471.398 636.033 471.401 636.034 471.401 636.034ZM470.708 635.453C470.706 635.448 470.704 635.445 470.704 635.445C470.704 635.445 470.706 635.447 470.708 635.453Z" fill="#0A0A0A" stroke="#0A0A0A" stroke-width="10"/>
<path d="M31.9269 639C31.9269 639.954 31.9446 640.877 31.9621 641.723C31.9636 641.793 31.965 641.863 31.9664 641.932C31.9826 642.712 31.9971 643.413 31.9996 644.079C32.0048 645.449 31.9527 646.367 31.844 646.998C29.3386 646.923 26 644.184 26 639C26 633.816 29.3386 631.077 31.844 631.002C31.9527 631.633 32.0048 632.551 31.9996 633.921C31.9971 634.587 31.9826 635.288 31.9664 636.068C31.965 636.137 31.9636 636.207 31.9621 636.277C31.9446 637.123 31.9269 638.046 31.9269 639ZM31.7044 647.555C31.7044 647.555 31.7056 647.552 31.7083 647.547C31.7058 647.553 31.7045 647.555 31.7044 647.555ZM32.3921 646.968C32.3977 646.967 32.4007 646.966 32.4008 646.966C32.4009 646.966 32.3981 646.967 32.3921 646.968ZM32.4008 631.034C32.4007 631.034 32.3977 631.033 32.3921 631.032C32.3981 631.033 32.4009 631.034 32.4008 631.034ZM31.7083 630.453C31.7056 630.448 31.7044 630.445 31.7044 630.445C31.7045 630.445 31.7058 630.447 31.7083 630.453Z" fill="#0A0A0A" stroke="#0A0A0A" stroke-width="10"/>
<path d="M518.927 143C518.927 143.954 518.945 144.877 518.962 145.723C518.964 145.793 518.965 145.863 518.966 145.932C518.983 146.712 518.997 147.413 519 148.079C519.005 149.449 518.953 150.367 518.844 150.998C516.339 150.923 513 148.184 513 143C513 137.816 516.339 135.077 518.844 135.002C518.953 135.633 519.005 136.551 519 137.921C518.997 138.587 518.983 139.288 518.966 140.068C518.965 140.137 518.964 140.207 518.962 140.277C518.945 141.123 518.927 142.046 518.927 143ZM518.704 151.555C518.704 151.555 518.706 151.552 518.708 151.547C518.706 151.553 518.704 151.555 518.704 151.555ZM519.392 150.968C519.398 150.967 519.401 150.966 519.401 150.966C519.401 150.966 519.398 150.967 519.392 150.968ZM519.401 135.034C519.401 135.034 519.398 135.033 519.392 135.032C519.398 135.033 519.401 135.034 519.401 135.034ZM518.708 134.453C518.706 134.448 518.704 134.445 518.704 134.445C518.704 134.445 518.706 134.447 518.708 134.453Z" fill="#0A0A0A" stroke="#0A0A0A" stroke-width="10"/>
<path d="M1203.93 386C1203.93 386.954 1203.94 387.877 1203.96 388.723C1203.96 388.793 1203.97 388.863 1203.97 388.932C1203.98 389.712 1204 390.413 1204 391.079C1204 392.449 1203.95 393.367 1203.84 393.998C1201.34 393.923 1198 391.184 1198 386C1198 380.816 1201.34 378.077 1203.84 378.002C1203.95 378.633 1204 379.551 1204 380.921C1204 381.587 1203.98 382.288 1203.97 383.068C1203.97 383.137 1203.96 383.207 1203.96 383.277C1203.94 384.123 1203.93 385.046 1203.93 386ZM1203.7 394.555C1203.7 394.555 1203.71 394.552 1203.71 394.547C1203.71 394.553 1203.7 394.555 1203.7 394.555ZM1204.39 393.968C1204.4 393.967 1204.4 393.966 1204.4 393.966C1204.4 393.966 1204.4 393.967 1204.39 393.968ZM1204.4 378.034C1204.4 378.034 1204.4 378.033 1204.39 378.032C1204.4 378.033 1204.4 378.034 1204.4 378.034ZM1203.71 377.453C1203.71 377.448 1203.7 377.445 1203.7 377.445C1203.7 377.445 1203.71 377.447 1203.71 377.453Z" fill="#0A0A0A" stroke="#0A0A0A" stroke-width="10"/>
<path d="M1327.93 856C1327.93 856.954 1327.94 857.877 1327.96 858.723C1327.96 858.793 1327.97 858.863 1327.97 858.932C1327.98 859.712 1328 860.413 1328 861.079C1328 862.449 1327.95 863.367 1327.84 863.998C1325.34 863.923 1322 861.184 1322 856C1322 850.816 1325.34 848.077 1327.84 848.002C1327.95 848.633 1328 849.551 1328 850.921C1328 851.587 1327.98 852.288 1327.97 853.068C1327.97 853.137 1327.96 853.207 1327.96 853.277C1327.94 854.123 1327.93 855.046 1327.93 856ZM1327.7 864.555C1327.7 864.555 1327.71 864.552 1327.71 864.547C1327.71 864.553 1327.7 864.555 1327.7 864.555ZM1328.39 863.968C1328.4 863.967 1328.4 863.966 1328.4 863.966C1328.4 863.966 1328.4 863.967 1328.39 863.968ZM1328.4 848.034C1328.4 848.034 1328.4 848.033 1328.39 848.032C1328.4 848.033 1328.4 848.034 1328.4 848.034ZM1327.71 847.453C1327.71 847.448 1327.7 847.445 1327.7 847.445C1327.7 847.445 1327.71 847.447 1327.71 847.453Z" fill="#0A0A0A" stroke="#0A0A0A" stroke-width="10"/>
<path d="M502.927 957C502.927 957.954 502.945 958.877 502.962 959.723C502.964 959.793 502.965 959.863 502.966 959.932C502.983 960.712 502.997 961.413 503 962.079C503.005 963.449 502.953 964.367 502.844 964.998C500.339 964.923 497 962.184 497 957C497 951.816 500.339 949.077 502.844 949.002C502.953 949.633 503.005 950.551 503 951.921C502.997 952.587 502.983 953.288 502.966 954.068C502.965 954.137 502.964 954.207 502.962 954.277C502.945 955.123 502.927 956.046 502.927 957ZM502.704 965.555C502.704 965.555 502.706 965.552 502.708 965.547C502.706 965.553 502.704 965.555 502.704 965.555ZM503.392 964.968C503.398 964.967 503.401 964.966 503.401 964.966C503.401 964.966 503.398 964.967 503.392 964.968ZM503.401 949.034C503.401 949.034 503.398 949.033 503.392 949.032C503.398 949.033 503.401 949.034 503.401 949.034ZM502.708 948.453C502.706 948.448 502.704 948.445 502.704 948.445C502.704 948.445 502.706 948.447 502.708 948.453Z" fill="#0A0A0A" stroke="#0A0A0A" stroke-width="10"/>
<path d="M217.927 248C217.927 248.954 217.945 249.877 217.962 250.723C217.964 250.793 217.965 250.863 217.966 250.932C217.983 251.712 217.997 252.413 218 253.079C218.005 254.449 217.953 255.367 217.844 255.998C215.339 255.923 212 253.184 212 248C212 242.816 215.339 240.077 217.844 240.002C217.953 240.633 218.005 241.551 218 242.921C217.997 243.587 217.983 244.288 217.966 245.068C217.965 245.137 217.964 245.207 217.962 245.277C217.945 246.123 217.927 247.046 217.927 248ZM217.704 256.555C217.704 256.555 217.706 256.552 217.708 256.547C217.706 256.553 217.704 256.555 217.704 256.555ZM218.392 255.968C218.398 255.967 218.401 255.966 218.401 255.966C218.401 255.966 218.398 255.967 218.392 255.968ZM218.401 240.034C218.401 240.034 218.398 240.033 218.392 240.032C218.398 240.033 218.401 240.034 218.401 240.034ZM217.708 239.453C217.706 239.448 217.704 239.445 217.704 239.445C217.704 239.445 217.706 239.447 217.708 239.453Z" fill="#0A0A0A" stroke="#0A0A0A" stroke-width="10"/>
<path d="M869 579C869 580.52 869.035 581.993 869.07 583.36C869.073 583.475 869.076 583.589 869.079 583.702C869.111 584.956 869.141 586.104 869.146 587.198C869.158 589.642 869.035 591.36 868.715 592.599C868.425 593.721 868.073 594.076 867.807 594.263C867.448 594.516 866.456 595 864 595C854.389 595 847 587.62 847 579C847 570.38 854.389 563 864 563C866.456 563 867.448 563.484 867.807 563.737C868.073 563.924 868.425 564.279 868.715 565.401C869.035 566.64 869.158 568.358 869.146 570.802C869.141 571.896 869.111 573.044 869.079 574.298C869.076 574.411 869.073 574.525 869.07 574.64C869.035 576.007 869 577.48 869 579Z" stroke="#0A0A0A" stroke-width="10"/>
</g>
<defs>
<clipPath id="clip0">
<rect width="1440" height="1024" fill="white"/>
</clipPath>
</defs>
</svg>